#!OML:ASF F:\VICON\USERDATA\INSTALL\Justin_Nancy\Justin_Nancy.ASF
:FULLY-SPECIFIED
:DEGREES
131
root -8.40556 17.3923 -12.8875 1.9357 -2.61489 6.02327
lowerback 5.9289 -1.96965 -7.20872
upperback -0.233142 -3.08327 1.40147
thorax -3.11468 -1.40842 5.76677
lowerneck -17.9411 -2.21132 -8.95741
upperneck 19.1967 -1.18667 2.77824
head 9.07639 -0.914368 2.27474
rclavicle 2.88238e-015 -7.95139e-016
rhumerus -35.9746 -21.517 -74.0964
rradius 25.8239
rwrist 12.0319
rhand -13.1677 15.6786
rfingers 7.12502
rthumb 12.9315 -13.9007
lclavicle 2.88238e-015 -7.95139e-016
lhumerus -22.9016 9.5428 82.3916
lradius 30.1124
lwrist -8.38045
lhand -16.9535 27.6493
lfingers 7.12502
lthumb 9.28026 57.4251
rfemur -28.3579 0.811316 16.6012
rtibia 15.6522
rfoot -6.26511 -6.59588
rtoes -13.5708
lfemur 4.32664 2.719 -31.3015
ltibia 18.3488
lfoot -14.5316 -5.69824
ltoes -2.63968
132
root -8.41351 17.3963 -12.7415 1.81111 -2.61135 5.98258
lowerback 5.9924 -1.93017 -7.13005
upperback -0.135466 -3.02652 1.40792
thorax -3.06035 -1.38654 5.72527
lowerneck -18.1753 -2.23843 -8.9522
upperneck 19.283 -1.19804 2.76458
head 9.14931 -0.921519 2.26815
rclavicle 4.67144e-015 -1.66979e-014
rhumerus -36.0127 -21.6517 -73.9736
rradius 25.6718
rwrist 11.8468
rhand -13.3231 15.9287
rfingers 7.12502
rthumb 12.7817 -13.6601
lclavicle 4.67144e-015 -1.66979e-014
lhumerus -22.6169 9.23579 82.4733
lradius 30.1761
lwrist -8.15953
lhand -17.0326 27.616
lfingers 7.12502
lthumb 9.20389 57.3952
rfemur -28.0088 0.718771 16.8518
rtibia 15.656
rfoot -5.84059 -5.6748
rtoes -15.8115
lfemur 4.8218 2.31101 -31.2517
ltibia 18.6194
lfoot -14.2744 -5.68152
ltoes -2.06212
133
root -8.41844 17.39 -12.5931 1.75709 -2.75953 6.04502
lowerback 5.90913 -1.86178 -7.0927
upperback -0.0569097 -2.92577 1.35475
thorax -2.95112 -1.34414 5.63471
lowerneck -18.3842 -2.21081 -8.99444
upperneck 19.4518 -1.14233 2.83611
head 9.24264 -0.893454 2.30886
rclavicle 3.81667e-014 -7.95139e-016
rhumerus -35.9558 -22.0755 -73.7322
rradius 25.3655
rwrist 12.3256
rhand -13.1341 14.6806
rfingers 7.12502
rthumb 12.9639 -14.8966
lclavicle 3.81667e-014 -7.95139e-016
lhumerus -22.3032 9.19984 82.5087
lradius 30.1617
lwrist -7.85944
lhand -17.1217 27.7127
lfingers 7.12502
lthumb 9.11793 57.4956
rfemur -27.9075 0.605107 17.0252
rtibia 15.9844
rfoot -5.36062 -4.53934
rtoes -14.7099
lfemur 5.17754 2.07653 -31.3674
ltibia 19.0257
lfoot -14.2129 -5.48688
ltoes -2.34522
134
root -8.42768 17.3806 -12.4504 1.73284 -2.80406 6.06582
lowerback 5.86037 -1.90019 -7.06625
upperback -0.0924587 -2.97259 1.35696
thorax -2.95507 -1.36669 5.62392
lowerneck -18.0721 -2.13939 -9.177
upperneck 19.4503 -1.04695 2.9339
head 9.18137 -0.853425 2.38572
rclavicle 6.16232e-015 -1.98785e-014
rhumerus -36.2644 -22.1931 -73.4714
rradius 25.3245
rwrist 12.8638
rhand -13.0039 12.4968
rfingers 7.12502
rthumb 13.0895 -17.0724
lclavicle 6.16232e-015 -1.98785e-014
lhumerus -22.2903 9.36451 82.4499
lradius 30.1945
lwrist -7.70702
lhand -17.2492 28.0242
lfingers 7.12502
lthumb 8.99483 57.8124
rfemur -27.9188 0.498568 17.2215
rtibia 16.7346
rfoot -4.89723 -3.53677
rtoes -13.1401
lfemur 5.46538 1.81244 -31.4058
ltibia 19.4413
lfoot -14.0586 -5.37277
ltoes -3.12029
135
root -8.4443 17.3759 -12.3069 1.66184 -2.79375 5.95797
lowerback 5.87986 -1.91077 -7.02306
upperback -0.0413414 -2.98266 1.38604
thorax -2.91169 -1.3755 5.63011
lowerneck -18.0551 -2.1141 -9.01674
upperneck 19.4914 -1.03052 2.8087
head 9.1898 -0.848853 2.31855
rclavicle -3.71727e-014 1.43125e-014
rhumerus -36.3609 -22.4222 -73.3106
rradius 25.1439
rwrist 13.2801
rhand -12.8774 11.5175
rfingers 7.12502
rthumb 13.2114 -18.0439
lclavicle -3.71727e-014 1.43125e-014
lhumerus -22.2486 9.42165 82.3868
lradius 30.3703
lwrist -7.74704
lhand -17.5135 26.5107
lfingers 7.12502
lthumb 8.7398 56.3097
rfemur -27.8468 0.537755 17.5505
rtibia 17.797
rfoot -4.5711 -3.01726
rtoes -12.7371
lfemur 5.81913 1.70803 -31.2083
ltibia 19.8596
lfoot -13.7972 -5.5608
ltoes -4.03644
136
root -8.45911 17.3693 -12.1598 1.63677 -2.81152 6.25228
lowerback 5.75851 -1.82902 -7.29324
upperback 0.0577139 -2.88417 1.23665
thorax -2.74955 -1.33312 5.61044
lowerneck -18.3243 -2.1784 -8.83394
upperneck 19.5701 -1.13528 2.7727
head 9.27065 -0.888326 2.2628
rclavicle 4.65156e-014 -2.38542e-015
rhumerus -36.2999 -23.0089 -73.0883
rradius 24.6887
rwrist 13.6573
rhand -12.7222 12.0523
rfingers 7.12502
rthumb 13.3609 -17.4993
lclavicle 4.65156e-014 -2.38542e-015
lhumerus -22.2113 9.22755 82.3511
lradius 30.696
lwrist -7.78597
lhand -17.2838 25.6583
lfingers 7.12502
lthumb 8.96145 55.448
rfemur -27.8544 0.388631 17.5003
rtibia 18.9666
rfoot -4.4482 -2.65151
rtoes -13.1544
lfemur 6.05317 1.53077 -31.4848
ltibia 20.3295
lfoot -13.4498 -5.7295
ltoes -5.27402
137
root -8.47105 17.3637 -12.0021 1.52569 -2.76198 6.37873
lowerback 5.68038 -1.89152 -7.44237
upperback 0.0549841 -2.97038 1.27
thorax -2.68654 -1.37668 5.73161
lowerneck -18.2268 -2.16291 -9.12369
upperneck 19.583 -1.06177 2.86208
head 9.2561 -0.866775 2.35138
rclavicle -1.96797e-014 2.38542e-015
rhumerus -36.5298 -23.1198 -72.6548
rradius 24.3251
rwrist 14.0704
rhand -12.8036 13.1768
rfingers 7.12502
rthumb 13.2825 -16.38
lclavicle -1.96797e-014 2.38542e-015
lhumerus -22.571 9.44771 82.3769
lradius 31.0778
lwrist -7.93189
lhand -17.2361 25.9511
lfingers 7.12502
lthumb 9.00748 55.7388
rfemur -27.6068 0.495572 17.5144
rtibia 20.0775
rfoot -4.58015 -2.70467
rtoes -13.424
lfemur 6.39147 1.34866 -31.5857
ltibia 20.8673
lfoot -13.0711 -5.92549
ltoes -6.62744
138
root -8.48828 17.3597 -11.8451 1.43684 -2.49391 6.37535
lowerback 5.7517 -1.98156 -7.47013
upperback -0.0269596 -3.09905 1.3242
thorax -2.78815 -1.4333 5.81856
lowerneck -18.0844 -2.12999 -9.25746
upperneck 19.718 -0.99082 2.851
head 9.27429 -0.849258 2.38045
rclavicle 6.75868e-015 1.66979e-014
rhumerus -36.9033 -23.5139 -72.1509
rradius 24.0988
rwrist 14.8016
rhand -12.8518 13.6599
rfingers 7.12502
rthumb 13.2361 -15.8999
lclavicle 6.75868e-015 1.66979e-014
lhumerus -22.7372 9.52434 82.4241
lradius 31.1026
lwrist -7.88829
lhand -17.09 25.938
lfingers 7.12502
lthumb 9.14847 55.7195
rfemur -27.2732 0.78495 17.573
rtibia 21.0288
rfoot -4.68591 -2.98602
rtoes -12.4864
lfemur 6.70757 1.00002 -31.516
ltibia 21.4078
lfoot -12.5216 -6.06194
ltoes -8.28272
139
root -8.51001 17.3691 -11.6894 1.36976 -2.16423 6.31636
lowerback 5.88156 -2.06954 -7.51015
upperback -0.111628 -3.23012 1.39149
thorax -2.92343 -1.48914 5.93003
lowerneck -18.0769 -2.1044 -9.24046
upperneck 19.9781 -0.945314 2.78362
head 9.36074 -0.84105 2.36319
rclavicle -3.57812e-014 2.06736e-014
rhumerus -37.1317 -23.2629 -72.0758
rradius 24.1155
rwrist 14.7874
rhand -12.928 13.0451
rfingers 7.12502
rthumb 13.1626 -16.5194
lclavicle -3.57812e-014 2.06736e-014
lhumerus -22.9061 9.84886 82.4424
lradius 31.0798
lwrist -8.00766
lhand -17.1598 26.0066
lfingers 7.12502
lthumb 9.08119 55.7911
rfemur -26.8756 1.03612 17.6829
rtibia 21.6383
rfoot -4.39706 -2.68326
rtoes -9.66514
lfemur 6.91701 0.670793 -31.3353
ltibia 22.051
lfoot -11.9125 -6.31913
ltoes -10.1496
140
root -8.5273 17.3854 -11.5276 1.24502 -2.04601 6.32548
lowerback 5.97841 -2.0853 -7.53922
upperback -0.219254 -3.26424 1.40118
thorax -3.0831 -1.49514 5.96782
lowerneck -17.7746 -2.0396 -9.10453
upperneck 19.9924 -0.875618 2.56535
head 9.30512 -0.824679 2.27422
rclavicle -1.1281e-014 -1.27222e-014
rhumerus -37.4627 -22.8883 -72.0673
rradius 24.1868
rwrist 14.4209
rhand -13.0113 12.7018
rfingers 7.12502
rthumb 13.0823 -16.8679
lclavicle -1.1281e-014 -1.27222e-014
lhumerus -23.2361 9.95323 82.4024
lradius 31.0557
lwrist -7.64219
lhand -17.3415 25.9251
lfingers 7.12502
lthumb 8.90582 55.7171
rfemur -26.5493 1.35238 17.6793
rtibia 21.9783
rfoot -3.42838 -1.79378
rtoes -5.67718
lfemur 7.13492 0.380564 -31.2798
ltibia 22.8163
lfoot -11.078 -6.63887
ltoes -10.878
141
root -8.5416 17.4078 -11.3549 1.04005 -1.89242 6.04401
lowerback 6.00345 -2.15078 -7.18573
upperback -0.225612 -3.32675 1.45717
thorax -3.10979 -1.5303 5.83264
lowerneck -17.7236 -1.94965 -9.08894
upperneck 20.1709 -0.750308 2.52292
head 9.3501 -0.774762 2.27541
rclavicle -1.08338e-014 -1.59028e-014
rhumerus -37.7032 -23.086 -71.8875
rradius 24.1157
rwrist 14.6198
rhand -13.1309 12.4597
rfingers 7.12502
rthumb 12.967 -17.1173
lclavicle -1.08338e-014 -1.59028e-014
lhumerus -23.4664 10.1486 82.2559
lradius 30.8978
lwrist -7.34295
lhand -17.4065 24.835
lfingers 7.12502
lthumb 8.84306 54.6297
rfemur -26.1098 1.72393 17.9167
rtibia 22.1981
rfoot -2.48215 -1.68585
rtoes -3.07063
lfemur 7.39115 -0.0332941 -30.9613
ltibia 23.6976
lfoot -10.155 -6.82734
ltoes -12.744
142
root -8.55298 17.4326 -11.1884 0.889279 -1.7686 5.67788
lowerback 5.91705 -2.18162 -6.66018
upperback -0.118284 -3.32004 1.50138
thorax -2.976 -1.54369 5.5731
lowerneck -17.9041 -1.96365 -9.11826
upperneck 20.3458 -0.752941 2.57189
head 9.44472 -0.776454 2.299
rclavicle -5.41688e-014 -7.95139e-016
rhumerus -37.7933 -23.5243 -71.6104
rradius 23.918
rwrist 14.9898
rhand -13.0938 12.4403
rfingers 7.12502
rthumb 13.0028 -17.1345
lclavicle -5.41688e-014 -7.95139e-016
lhumerus -23.4818 10.4036 82.2173
lradius 30.8604
lwrist -7.34913
lhand -17.8017 22.5827
lfingers 7.12502
lthumb 8.46172 52.3931
rfemur -25.6183 1.93787 18.291
rtibia 22.3187
rfoot -1.59549 -2.43766
rtoes -1.98604
lfemur 7.34802 -0.433121 -30.5293
ltibia 24.8265
lfoot -9.01188 -7.23628
ltoes -14.2177
143
root -8.56745 17.455 -11.0272 0.767456 -1.80897 5.38472
lowerback 5.87464 -2.18319 -6.427
upperback -0.11666 -3.29796 1.66735
thorax -2.95651 -1.53622 5.61176
lowerneck -17.7627 -1.97506 -9.31317
upperneck 20.4588 -0.716476 2.52127
head 9.4586 -0.784265 2.31934
rclavicle -1.53064e-014 1.27222e-014
rhumerus -37.9265 -23.522 -71.2233
rradius 23.6497
rwrist 15.121
rhand -13.0853 12.7104
rfingers 7.12502
rthumb 13.011 -16.8639
lclavicle -1.53064e-014 1.27222e-014
lhumerus -23.9242 10.6517 82.3623
lradius 31.17
lwrist -7.1538
lhand -17.3246 24.578
lfingers 7.12502
lthumb 8.92208 54.3694
rfemur -25.0295 2.14193 18.6861
rtibia 22.3765
rfoot -0.558678 -3.18872
rtoes -0.917757
lfemur 7.06536 -0.687218 -30.1408
ltibia 26.2192
lfoot -7.6853 -7.76835
ltoes -14.5816
144
root -8.57642 17.4725 -10.8659 0.651866 -1.61429 4.90047
lowerback 5.88963 -2.2113 -5.87778
upperback -0.0649547 -3.29255 1.81771
thorax -2.93282 -1.54317 5.45764
lowerneck -17.8268 -2.01749 -9.15186
upperneck 20.515 -0.741015 2.21489
head 9.4914 -0.819274 2.18279
rclavicle -4.65653e-014 1.19271e-014
rhumerus -37.9812 -23.8449 -70.9372
rradius 23.503
rwrist 15.2533
rhand -13.0891 12.8082
rfingers 7.12502
rthumb 13.0073 -16.7663
lclavicle -4.65653e-014 1.19271e-014
lhumerus -24.0398 10.9183 82.4934
lradius 31.1318
lwrist -7.20906
lhand -17.0353 26.2312
lfingers 7.12502
lthumb 9.20127 56.0104
rfemur -24.3506 2.19459 19.256
rtibia 22.4605
rfoot 0.221857 -3.25717
rtoes 1.38281
lfemur 6.62173 -0.898386 -29.4517
ltibia 27.987
lfoot -6.21544 -8.44999
ltoes -14.8053
145
root -8.60569 17.4978 -10.6796 0.16088 0.54717 4.2339
lowerback 5.95021 -2.85384 -5.18112
upperback 0.2524 -4.09469 1.95963
thorax -2.56482 -1.97323 5.25636
lowerneck -17.9676 -2.06056 -8.97819
upperneck 20.5384 -0.810988 2.11535
head 9.52827 -0.84949 2.11019
rclavicle 2.03754e-015 1.19271e-014
rhumerus -37.879 -24.4833 -70.7873
rradius 23.3159
rwrist 15.3996
rhand -13.2305 12.8436
rfingers 7.12502
rthumb 12.871 -16.7395
lclavicle 2.03754e-015 1.19271e-014
lhumerus -23.7274 11.0758 82.5259
lradius 30.6628
lwrist -7.43721
lhand -16.8569 26.4388
lfingers 7.12502
lthumb 9.37341 56.2104
rfemur -22.8369 2.004 19.8029
rtibia 22.6673
rfoot -0.0741388 -4.48617
rtoes 4.87546
lfemur 6.6601 -2.33971 -28.1848
ltibia 29.8433
lfoot -4.47257 -9.82017
ltoes -14.5799
